<?xml version="1.0" encoding="utf-8"?>
<!-- Generator: Adobe Illustrator 24.0.2, SVG Export Plug-In . SVG Version: 6.00 Build 0)  -->
<svg version="1.1" id="Layer_1" xmlns="http://www.w3.org/2000/svg" xmlns:xlink="http://www.w3.org/1999/xlink" x="0px" y="0px"
	 viewBox="0 0 178 59.3" style="enable-background:new 0 0 178 59.3;" xml:space="preserve">
<style type="text/css">
	.st0{fill:#0085CA;}
</style>
<path class="st0" d="M158.4,36.9c0,7.5-5.2,13.8-13.3,13.8c-7.8,0-13.4-6.4-13.4-14v-0.2c0-7.6,5.2-13.9,13.2-13.9
	c7.9,0,13.4,6.4,13.4,14.1v0.2H158.4z M168,36.6c0-12.3-9.7-22.3-22.9-22.3s-23,10.2-23,22.5V37c0,11.3,8.2,20.7,19.8,22.1
	c1,0.1,2,0.2,3,0.2s2-0.1,3-0.2c11.7-1.4,20-11,20-22.2L168,36.6L168,36.6z"/>
<path class="st0" d="M31,0c-2.6,0-4.8,2.1-4.8,4.8c0,2.6,2.1,4.8,4.8,4.8c2.6,0,4.8-2.1,4.8-4.8S33.6,0,31,0z"/>
<path class="st0" d="M174.9,55.9c0,0.1-0.1,0.2-0.2,0.2c-0.1,0-0.2-0.1-0.2-0.2V54l-0.5,1.1l-0.1,0.1c0,0-0.1,0-0.1-0.1l-0.5-1.1
	v1.9c0,0.1-0.1,0.2-0.2,0.2s-0.2-0.1-0.2-0.2v-2.5c0-0.1,0.1-0.2,0.2-0.2c0,0,0.1,0,0.1,0.1l0.6,1.4l0.6-1.4l0.1-0.1
	c0.1,0,0.2,0.1,0.2,0.2L174.9,55.9L174.9,55.9z M172.4,53.3c0,0.1-0.1,0.2-0.2,0.2h-0.8v2.4c0,0.1-0.1,0.2-0.2,0.2
	c-0.1,0-0.2-0.1-0.2-0.2v-2.4h-0.8c-0.1,0-0.2-0.1-0.2-0.2c0-0.1,0.1-0.2,0.2-0.2h1.9C172.4,53.2,172.4,53.3,172.4,53.3z
	 M177.4,54.4c0-2.6-2.1-4.8-4.8-4.8c-2.6,0-4.8,2.1-4.8,4.8c0,2.2,1.5,4,3.5,4.6c0.4,0.1,0.8,0.2,1.3,0.2c0.4,0,0.9-0.1,1.3-0.2
	C175.9,58.5,177.4,56.6,177.4,54.4z"/>
<path class="st0" d="M31.1,14.3c-2.6,0-4.6,2-4.6,4.6v22.6c0,0,0,0,0-0.1c-0.2,6-3.2,9.3-8.6,9.3h-0.3C12.1,50.7,9,47.2,9,41l0,0
	c0-2.6-2-4.6-4.6-4.6C2,36.3,0,38.4,0,41v2.8c0,3.3,1.1,6.3,2.8,8.6c3.1,4.2,8.6,6.8,14.4,6.8h1.3c4.2,0,8.2-1.3,11.3-3.6
	c1.2-0.9,2.2-1.9,3.1-3.1c1.8-2.4,2.8-5.3,2.8-8.6v-25C35.8,16.3,33.7,14.3,31.1,14.3z"/>
<path class="st0" d="M76.9,19.4c0-2.6-2-4.6-4.6-4.6s-4.6,2-4.6,4.6v19.3c0,1.7,0,2.7,0,2.8c-0.2,6-3.2,9.3-8.6,9.3h-0.3
	c-5.5,0-8.6-3.5-8.6-9.7V19.4c0-2.6-2-4.6-4.6-4.6c-2.5,0-4.6,2-4.6,4.6v24.4c0,3.4,1.1,6.4,3,8.8c3.2,4.2,8.6,6.6,14.3,6.6h1.3
	c5.7,0,11.2-2.5,14.3-6.6c1.8-2.4,3-5.4,3-8.8c0,0,0-0.4,0-1L76.9,19.4L76.9,19.4z"/>
<path class="st0" d="M117.7,54.1c0,2.6-2,4.6-4.6,4.6s-4.6-2-4.6-4.6V34.8c0-1.7,0-2.7,0-2.8c-0.2-6-3.2-9.3-8.6-9.3h-0.3
	c-5.5,0-8.6,3.5-8.6,9.7V54c0,2.6-2,4.6-4.6,4.6c-2.5,0-4.6-2-4.6-4.6V29.7c0-3.4,1.1-6.4,3-8.8c3.2-4.2,8.6-6.6,14.3-6.6h1.3
	c5.7,0,11.2,2.5,14.3,6.6c1.8,2.4,3,5.4,3,8.8c0,0,0,0.4,0,1L117.7,54.1L117.7,54.1z"/>
</svg>
