<?xml version="1.0" encoding="utf-8"?>
<!-- Generator: Adobe Illustrator 24.0.2, SVG Export Plug-In . SVG Version: 6.00 Build 0)  -->
<svg version="1.1" id="Layer_1" xmlns="http://www.w3.org/2000/svg" xmlns:xlink="http://www.w3.org/1999/xlink" x="0px" y="0px"
	 viewBox="0 0 35.8 59.2" style="enable-background:new 0 0 35.8 59.2;" xml:space="preserve">
<style type="text/css">
	.st0{fill:#FFFFFF;}
</style>
<path class="st0" d="M31,0c-2.6,0-4.8,2.1-4.8,4.8c0,2.6,2.1,4.8,4.8,4.8c2.6,0,4.8-2.1,4.8-4.8S33.6,0,31,0z"/>
<path class="st0" d="M31.1,14.3c-2.6,0-4.6,2-4.6,4.6v22.6c0,0,0,0,0-0.1c-0.2,6-3.2,9.3-8.6,9.3h-0.3C12.1,50.7,9,47.2,9,41l0,0
	c0-2.6-2-4.6-4.6-4.6C2,36.3,0,38.4,0,41v2.8c0,3.3,1.1,6.3,2.8,8.6c3.1,4.2,8.6,6.8,14.4,6.8h1.3c4.2,0,8.2-1.3,11.3-3.6
	c1.2-0.9,2.2-1.9,3.1-3.1c1.8-2.4,2.8-5.3,2.8-8.6v-25C35.8,16.3,33.7,14.3,31.1,14.3z"/>
</svg>
